<svg width="29" height="33" viewBox="0 0 29 33" fill="none" xmlns="http://www.w3.org/2000/svg">
<path d="M9.24415 7.39034C7.4907 6.08892 5.83452 4.66122 4.2888 3.11865C5.27778 5.06593 6.12482 7.08205 6.82328 9.15126C9.67725 17.3816 12.6799 30.5104 23.755 29.8804C27.7652 19.5375 16.2033 12.6509 9.24415 7.39034Z" fill="#169E3B"/>
<path d="M4.28871 3.11865L23.9296 29.7479L23.9528 29.7799C23.9952 29.8588 24.0418 29.9353 24.0925 30.0091C24.1413 30.0874 24.1956 30.1621 24.2551 30.2326C24.3092 30.3071 24.3634 30.3816 24.4353 30.4432C24.4971 30.5117 24.5636 30.5757 24.6343 30.6348L24.8449 30.8125L25.0761 30.959C25.2312 31.0508 25.3945 31.1282 25.5639 31.19L25.4264 31.6046C25.2272 31.5294 25.0348 31.437 24.8516 31.3284C24.7603 31.27 24.6716 31.2152 24.5839 31.1542L24.3466 30.9471C24.2689 30.8785 24.1955 30.805 24.127 30.7272C24.0598 30.646 23.9978 30.5606 23.9412 30.4718C23.8749 30.3917 23.8138 30.3076 23.758 30.2199C23.6976 30.1309 23.6441 30.0374 23.598 29.9403L23.6212 29.9722L4.28871 3.11865Z" fill="#386845"/>
<path d="M8.25257 8.60507C8.37355 8.43978 8.47171 8.25892 8.54436 8.06737C8.5656 7.99225 8.59554 7.92166 8.60969 7.8517L8.64054 7.65567L8.6398 7.46091L8.65631 7.65503C8.65634 7.71468 8.64575 7.78207 8.6403 7.85654C8.6297 7.93346 8.61458 8.00966 8.59497 8.08479C8.53773 8.28884 8.45415 8.48457 8.34638 8.667L8.25257 8.60507Z" fill="#386845"/>
<path d="M9.37442 10.1325C9.0949 10.2396 8.80118 10.3052 8.5026 10.3273C8.29355 10.3477 8.08271 10.3144 7.89011 10.2304C7.83178 10.1986 7.77782 10.1595 7.72955 10.1139C7.70117 10.0749 7.68311 10.05 7.68311 10.05C7.68311 10.05 7.70116 10.0749 7.72697 10.1103C7.77741 10.1539 7.83429 10.1894 7.89559 10.2155C8.08303 10.2882 8.28617 10.3106 8.48486 10.2805C8.77351 10.2434 9.0549 10.1631 9.31959 10.0422L9.37442 10.1325Z" fill="#386845"/>
<path d="M10.5928 11.785C10.6781 11.7311 10.7598 11.6717 10.8374 11.6071C11.0064 11.4604 11.1595 11.2963 11.2942 11.1175C11.3626 11.0198 11.4239 10.9172 11.4775 10.8106C11.5254 10.7156 11.5661 10.6171 11.5992 10.516C11.6368 10.3367 11.6683 10.2161 11.6683 10.2161L11.614 10.5214C11.5859 10.6248 11.5511 10.7263 11.5097 10.8251C11.4607 10.9366 11.4029 11.044 11.3368 11.1462C11.2116 11.3393 11.0646 11.5172 10.8987 11.6764C10.8186 11.7449 10.7332 11.807 10.6434 11.8621L10.5928 11.785Z" fill="#386845"/>
<path d="M11.6472 13.242C11.5305 13.3144 11.4092 13.3791 11.2841 13.4356C11.1719 13.4901 11.0379 13.5442 10.8941 13.6C10.7504 13.6557 10.5928 13.6998 10.4519 13.7372L10.2118 13.7871C10.1355 13.8057 10.058 13.8186 9.97976 13.8257L9.75768 13.8408C9.69277 13.8485 9.62732 13.8507 9.56202 13.8475L9.15747 13.8054C9.15747 13.8054 9.3196 13.8123 9.56136 13.8317C9.62633 13.8304 9.69114 13.8249 9.7554 13.8153L9.97587 13.7905C10.0529 13.783 10.1289 13.7677 10.2028 13.7448L10.4351 13.6843C10.5911 13.6305 10.7436 13.5793 10.867 13.5329C10.9904 13.4865 11.1335 13.415 11.237 13.356C11.3557 13.2946 11.4711 13.2269 11.5827 13.1533L11.6472 13.242Z" fill="#386845"/>
<path d="M13.1332 15.2854C13.2562 15.1871 13.3726 15.0807 13.4815 14.9669C13.5949 14.8844 13.689 14.7455 13.8101 14.614L13.9763 14.3954C14.039 14.3236 14.0953 14.2464 14.1445 14.1647C14.2493 14.0117 14.3427 13.8513 14.4241 13.6847C14.5013 13.5351 14.5705 13.3816 14.6314 13.2246L14.7572 12.7643L14.6462 13.2301C14.5984 13.3856 14.5409 13.538 14.474 13.6863C14.3955 13.8576 14.3065 14.0238 14.2074 14.184C14.1592 14.2663 14.1068 14.346 14.0505 14.4229C13.9915 14.4983 13.9413 14.5783 13.8868 14.645C13.7709 14.7836 13.6681 14.918 13.564 15.0208C13.4579 15.1422 13.3425 15.2551 13.219 15.3586L13.1332 15.2854Z" fill="#386845"/>
<path d="M15.4419 18.4665C15.4862 18.4381 15.5289 18.4071 15.5695 18.3737C15.651 18.3144 15.7525 18.208 15.8904 18.0697C16.0283 17.9315 16.1401 17.7796 16.2879 17.6178C16.4271 17.4326 16.5568 17.2404 16.6767 17.0421L16.8478 16.7333C16.9061 16.6352 16.954 16.5313 16.9907 16.4232C17.074 16.2379 17.141 16.0459 17.1909 15.849L17.3106 15.2684L17.2142 15.8809C17.1735 16.0812 17.1173 16.278 17.0462 16.4696C17.0154 16.5821 16.973 16.6912 16.9197 16.7949L16.7651 17.1189C16.6585 17.3374 16.5216 17.5292 16.3995 17.7265C16.2774 17.9238 16.1251 18.0943 16.0146 18.2181C15.9041 18.3419 15.7936 18.4656 15.7117 18.5469L15.5899 18.6626L15.4419 18.4665Z" fill="#386845"/>
<path d="M17.7811 21.6899C17.9728 21.5236 18.1505 21.3417 18.3123 21.1461C18.671 20.7146 18.9682 20.2356 19.1955 19.7226C19.2651 19.5798 19.3101 19.4331 19.3639 19.2909C19.4142 19.1514 19.4575 19.0095 19.4936 18.8657C19.5403 18.7287 19.5563 18.5868 19.5888 18.4601C19.6134 18.3374 19.6319 18.2136 19.6441 18.089C19.6674 17.9012 19.6783 17.7121 19.6767 17.5229L19.685 17.3107L19.689 17.5248C19.6939 17.7112 19.6865 17.8978 19.667 18.0832C19.6614 18.2085 19.649 18.3333 19.6301 18.4572C19.6063 18.5884 19.5902 18.7303 19.5523 18.8718C19.5143 19.0134 19.4937 19.1639 19.4425 19.3096C19.3914 19.4554 19.3515 19.6091 19.2916 19.7503C19.0808 20.2867 18.7964 20.791 18.4468 21.249C18.2881 21.4616 18.1119 21.6605 17.9201 21.8437L17.7811 21.6899Z" fill="#386845"/>
<path d="M20.1293 24.9183C20.3211 24.752 20.4988 24.5701 20.6606 24.3745C21.021 23.9443 21.3183 23.465 21.5438 22.951C21.6134 22.8082 21.6584 22.6615 21.7148 22.5229C21.7711 22.3843 21.8013 22.2321 21.8445 22.0976C21.8876 21.9632 21.9072 21.8188 21.9371 21.6885C21.967 21.5583 21.974 21.4338 21.9924 21.3174C22.0141 21.1295 22.025 20.9405 22.025 20.7513L22.0307 20.5356L22.0347 20.7497C22.0396 20.9361 22.0322 21.1227 22.0127 21.3081C22.0085 21.4334 21.9962 21.5584 21.9758 21.6821C21.952 21.8133 21.9385 21.9587 21.9006 22.1002C21.8626 22.2418 21.8394 22.3888 21.7883 22.5345C21.7371 22.6802 21.6972 22.834 21.6337 22.9778C21.4267 23.5144 21.1434 24.0183 20.7925 24.4739C20.6338 24.6865 20.4576 24.8854 20.2658 25.0686L20.1293 24.9183Z" fill="#386845"/>
<path d="M22.4706 28.1295L22.5734 28.0548C22.6614 27.9835 22.7456 27.9078 22.8257 27.8279C22.9391 27.7454 23.0357 27.61 23.1595 27.482L23.3283 27.267C23.3886 27.1963 23.4453 27.1225 23.498 27.0459C23.6038 26.8927 23.6992 26.7327 23.7837 26.5669C23.864 26.4205 23.935 26.2692 23.9963 26.1139L24.1308 25.6581L24.0285 26.1285C23.9829 26.2855 23.9262 26.4392 23.8588 26.5882C23.7862 26.7628 23.7008 26.9318 23.6035 27.0939C23.5562 27.1773 23.5047 27.2582 23.4492 27.3364L23.2907 27.5656C23.1747 27.7042 23.0746 27.8421 22.9731 27.9485C22.8716 28.0549 22.7888 28.1422 22.7256 28.2044L22.6193 28.2818L22.4706 28.1295Z" fill="#386845"/>
<path d="M14.2279 16.8649L14.1003 16.9577C14.0188 17.017 13.876 17.0666 13.7181 17.1327C13.5602 17.1987 13.3655 17.259 13.1654 17.334C12.9652 17.4091 12.718 17.4641 12.5046 17.4837L12.1656 17.5242C12.0568 17.542 11.9465 17.5477 11.8365 17.5412C11.6417 17.5521 11.4463 17.5454 11.2527 17.5211L10.6902 17.4258L11.2691 17.4766C11.4613 17.4875 11.654 17.4834 11.8455 17.4642C11.9551 17.464 12.0644 17.4518 12.1713 17.4278L12.4985 17.3635C12.712 17.3138 12.9228 17.2528 13.1298 17.1808C13.3222 17.0951 13.5072 17.0365 13.6548 16.9563L14.0083 16.7643C14.0516 16.7368 14.093 16.7067 14.1324 16.674L14.2279 16.8649Z" fill="#386845"/>
<path d="M16.571 20.086C16.3498 20.2093 16.1199 20.3167 15.8833 20.4072C15.3669 20.6082 14.8269 20.7422 14.2763 20.8058C13.9842 20.8418 13.6895 20.853 13.3954 20.8391C13.2594 20.8379 13.1236 20.8279 12.9889 20.8093C12.8692 20.8002 12.7503 20.7835 12.6327 20.7592C12.4544 20.7315 12.2782 20.691 12.1056 20.6381L11.9038 20.5842L12.104 20.6285C12.2786 20.6725 12.456 20.7047 12.6349 20.725C12.7545 20.7455 12.8754 20.7573 12.9966 20.7603C13.1287 20.7705 13.2613 20.7737 13.3937 20.7698C13.6824 20.7649 13.9702 20.7369 14.2543 20.6862C14.7872 20.5982 15.3069 20.4442 15.8017 20.2279C16.0254 20.1306 16.2415 20.0169 16.4484 19.8876L16.571 20.086Z" fill="#386845"/>
<path d="M18.9142 23.3071C18.6894 23.4372 18.4564 23.5524 18.2165 23.6518C17.6951 23.8768 17.15 24.0422 16.5915 24.145C16.2969 24.2014 15.9986 24.2371 15.699 24.2517C15.4353 24.2643 15.171 24.257 14.9083 24.2302C14.7234 24.2177 14.5399 24.1897 14.3596 24.1465L14.1523 24.1074L14.3606 24.1404C14.5426 24.1705 14.7262 24.1891 14.9105 24.196C15.1692 24.2105 15.4286 24.2032 15.686 24.1743C15.9841 24.1493 16.2799 24.1028 16.5711 24.035C17.1119 23.9096 17.6369 23.7243 18.1364 23.4822C18.3647 23.3755 18.5854 23.2531 18.7967 23.1159L18.9142 23.3071Z" fill="#386845"/>
<path d="M21.2571 26.528C21.2039 26.5599 21.149 26.5889 21.0927 26.615C20.9491 26.6937 20.8008 26.7636 20.6487 26.8242C20.465 26.9144 20.2271 26.9897 20.0041 27.0706L19.6273 27.1711C19.4988 27.2074 19.3684 27.2371 19.2367 27.2599L18.8387 27.3162C18.712 27.3402 18.583 27.3503 18.4541 27.3464C18.2257 27.3608 17.9964 27.357 17.7685 27.3352L17.1086 27.2402L17.7707 27.3011C17.9963 27.3117 18.2223 27.3034 18.4464 27.2761C18.5735 27.2732 18.7001 27.2575 18.8241 27.2292L19.2128 27.1526C19.341 27.1257 19.4672 27.0901 19.5905 27.046L19.9544 26.9277C20.1803 26.8285 20.3811 26.7693 20.5712 26.6581C20.7614 26.5469 20.8919 26.4954 20.9892 26.4354C21.0395 26.4028 21.088 26.3675 21.1345 26.3297L21.2571 26.528Z" fill="#386845"/>
</svg>
