<svg width="16" height="15" viewBox="0 0 16 15" fill="none" xmlns="http://www.w3.org/2000/svg">
<path d="M15.9999 1.73969C15.4262 2.04897 14.8206 2.24227 14.1831 2.35825C14.8206 1.89433 15.3306 1.15979 15.5537 0.270619C14.9481 0.695876 14.2787 1.00515 13.5456 1.19845C12.9718 0.463918 12.1431 0 11.2506 0C9.52932 0 8.12682 1.70103 8.12682 3.78866C8.12682 4.09794 8.1587 4.36856 8.22245 4.63918C5.64057 4.48454 3.3137 2.9768 1.75183 0.657216C1.49683 1.23711 1.33745 1.85567 1.33745 2.55155C1.33745 3.86598 1.87933 5.02577 2.73995 5.72165C2.22995 5.68299 1.75183 5.52835 1.30558 5.25773V5.29639C1.30558 7.15206 2.38932 8.69845 3.8237 9.04639C3.5687 9.12371 3.28182 9.16237 2.99495 9.16237C2.8037 9.16237 2.58057 9.12371 2.38932 9.08505C2.8037 10.5928 3.9512 11.7139 5.32182 11.7139C4.23807 12.7191 2.89932 13.3376 1.43308 13.3376C1.17808 13.3376 0.923076 13.3376 0.699951 13.299C2.10245 14.3814 3.72807 15 5.51307 15C11.2824 15 14.4381 9.20103 14.4381 4.17526C14.4381 4.02062 14.4381 3.82732 14.4381 3.67268C15.0437 3.1701 15.5856 2.51289 15.9999 1.73969Z" fill="white"/>
</svg>
