<svg width="17" height="18" viewBox="0 0 17 18" fill="none" xmlns="http://www.w3.org/2000/svg">
<path fill-rule="evenodd" clip-rule="evenodd" d="M4.86054 0.054C5.72454 0.0105 6.00028 0 8.2001 0C10.3999 0 10.6757 0.0105 11.5397 0.054C12.8566 0.12075 14.0125 0.47925 14.9407 1.5105C15.8691 2.54212 16.1914 3.82687 16.2515 5.28937C16.2907 6.24937 16.3001 6.55575 16.3001 9C16.3001 11.4443 16.2907 11.7506 16.2515 12.7106C16.1914 14.1739 15.8688 15.4583 14.9407 16.4895C14.0122 17.5211 12.8556 17.8792 11.5397 17.946C10.6757 17.9895 10.3999 18 8.2001 18C6.00028 18 5.72454 17.9895 4.86054 17.946C3.54361 17.8792 2.38767 17.5208 1.45955 16.4895C0.531085 15.4579 0.208773 14.1731 0.148698 12.7106C0.109548 11.7506 0.100098 11.4443 0.100098 9C0.100098 6.55575 0.109548 6.24937 0.148698 5.28937C0.208773 3.82612 0.531423 2.54175 1.45955 1.5105C2.38801 0.478875 3.54429 0.12075 4.86054 0.054ZM11.4732 1.674C10.619 1.6305 10.3628 1.6215 8.2001 1.6215C6.0374 1.6215 5.78124 1.63087 4.92703 1.674C4.00531 1.72087 3.14975 1.926 2.49162 2.65725C1.8335 3.3885 1.64889 4.33912 1.6067 5.36325C1.56755 6.31237 1.55945 6.597 1.55945 9C1.55945 11.403 1.56789 11.6876 1.6067 12.6368C1.64889 13.6609 1.8335 14.6115 2.49162 15.3428C3.14975 16.074 4.00531 16.2791 4.92703 16.326C5.7809 16.3695 6.03706 16.3785 8.2001 16.3785C10.3631 16.3785 10.6193 16.3691 11.4732 16.326C12.3949 16.2791 13.2505 16.074 13.9086 15.3428C14.5667 14.6115 14.7513 13.6609 14.7935 12.6368C14.8327 11.6876 14.8408 11.403 14.8408 9C14.8408 6.597 14.8323 6.31237 14.7935 5.36325C14.7513 4.33912 14.5667 3.3885 13.9086 2.65725C13.2505 1.926 12.3949 1.72087 11.4732 1.674Z" fill="white"/>
<path fill-rule="evenodd" clip-rule="evenodd" d="M4.51831 9.40918C4.51831 6.92403 6.33135 4.90918 8.56833 4.90918C10.8053 4.90918 12.6183 6.92366 12.6183 9.40918C12.6183 11.8947 10.8053 13.9092 8.56833 13.9092C6.33135 13.9092 4.51831 11.8943 4.51831 9.40918ZM5.93933 9.40918C5.93933 11.0224 7.11646 12.3303 8.56833 12.3303C10.0202 12.3303 11.1973 11.0224 11.1973 9.40918C11.1973 7.79598 10.0202 6.48805 8.56833 6.48805C7.11646 6.48805 5.93933 7.79598 5.93933 9.40918Z" fill="white"/>
<ellipse cx="12.25" cy="4.50022" rx="1.10452" ry="1.22727" fill="white"/>
</svg>
