<svg width="17" height="18" viewBox="0 0 17 18" fill="none" xmlns="http://www.w3.org/2000/svg">
<path fill-rule="evenodd" clip-rule="evenodd" d="M0.975047 0H15.825C16.1963 0 16.5 0.3375 16.5 0.75V17.25C16.5 17.6625 16.1963 18 15.825 18H0.975047C0.603798 18 0.300049 17.6625 0.300049 17.25V0.75C0.300049 0.3375 0.603798 0 0.975047 0ZM2.69629 15.3375H5.09253V6.75H2.69629V15.3375ZM3.91129 5.5875C3.13503 5.5875 2.52753 4.9125 2.52753 4.05C2.52753 3.1875 3.13503 2.5125 3.91129 2.5125C4.68754 2.5125 5.29504 3.1875 5.29504 4.05C5.29504 4.875 4.68754 5.5875 3.91129 5.5875ZM11.7075 15.3375H14.07V10.6125C14.07 8.2875 13.6313 6.525 11.2013 6.525C10.0538 6.525 9.24376 7.2375 8.94001 7.9125H8.90627V6.75H6.61127V15.3375H9.00751V11.1C9.00751 9.975 9.21001 8.8875 10.4588 8.8875C11.7075 8.8875 11.7075 10.1625 11.7075 11.175V15.3375Z" fill="white"/>
</svg>
