<svg width="18" height="19" viewBox="0 0 18 19" fill="none" xmlns="http://www.w3.org/2000/svg">
<path d="M17.1 9.5573C17.0993 4.4726 13.5382 0.278485 8.99635 0.0132214C4.45452 -0.252042 0.521871 3.50441 0.0472736 8.56134C-0.427324 13.6183 2.72226 18.2055 7.21442 19V12.3203H5.04386V9.5573H7.21442V7.45142C7.21442 5.0558 8.491 3.73253 10.4435 3.73253C11.0848 3.74247 11.7245 3.80477 12.3576 3.91892V6.27153H11.2793C10.9071 6.21626 10.5326 6.35325 10.2615 6.64381C9.99052 6.93437 9.85241 7.34697 9.88621 7.76506V9.5573H12.2577L11.8783 12.3203H9.88621V19C14.0412 18.2651 17.1007 14.2603 17.1 9.5573Z" fill="white"/>
</svg>
